<svg width="20" height="20" viewBox="0 0 20 20" fill="none" xmlns="http://www.w3.org/2000/svg">
<path d="M6.97233 10.2998C6.52002 10.8426 6.90598 11.6666 7.61251 11.6666H12.3874C13.094 11.6666 13.4799 10.8426 13.0276 10.2998L10.6402 7.43486C10.307 7.03506 9.69296 7.03506 9.3598 7.43486L6.97233 10.2998Z" fill="#FB813E"/>
<path d="M10.0001 1.66663C5.40508 1.66663 1.66675 5.40496 1.66675 9.99996C1.66675 14.595 5.40508 18.3333 10.0001 18.3333C14.5951 18.3333 18.3334 14.595 18.3334 9.99996C18.3334 5.40496 14.5951 1.66663 10.0001 1.66663ZM10.0001 16.6666C6.32425 16.6666 3.33341 13.6758 3.33341 9.99996C3.33341 6.32413 6.32425 3.33329 10.0001 3.33329C13.6759 3.33329 16.6667 6.32413 16.6667 9.99996C16.6667 13.6758 13.6759 16.6666 10.0001 16.6666Z" fill="#FB813E"/>
</svg>
