<svg width="252" height="43" viewBox="0 0 252 43" fill="none" xmlns="http://www.w3.org/2000/svg">
<path fill-rule="evenodd" clip-rule="evenodd" d="M38.5104 0.822889C39.6076 1.92007 39.6076 3.69896 38.5104 4.79615L32.0684 11.2381L38.5104 17.68C39.6076 18.7772 39.6076 20.5561 38.5104 21.6533L30.0818 30.0818C28.9846 31.179 27.2057 31.179 26.1086 30.0818C25.0114 28.9846 25.0114 27.2057 26.1086 26.1086L32.5505 19.6666L28.0952 15.2113L13.2247 30.0818C12.1275 31.179 10.3486 31.179 9.25145 30.0818L0.822889 21.6533C-0.274296 20.5561 -0.274296 18.7772 0.822889 17.68L9.25145 9.25144C10.3486 8.15426 12.1275 8.15426 13.2247 9.25144C14.3219 10.3486 14.3219 12.1275 13.2247 13.2247L6.78278 19.6666L11.2381 24.1219L34.5371 0.822889C35.6343 -0.274296 37.4132 -0.274296 38.5104 0.822889Z" fill="#C1C1C1"/>
<path fill-rule="evenodd" clip-rule="evenodd" d="M38.5099 0.822889C39.6071 1.92007 39.6071 3.69896 38.5099 4.79615L32.0679 11.2381L38.5099 17.68C39.6071 18.7772 39.6071 20.5561 38.5099 21.6533L30.0813 30.0818C28.9841 31.179 27.2052 31.179 26.108 30.0818C25.0109 28.9846 25.0109 27.2057 26.108 26.1086L32.55 19.6666L26.108 13.2247C25.0109 12.1275 25.0109 10.3486 26.108 9.25144L34.5366 0.822889C35.6338 -0.274296 37.4127 -0.274296 38.5099 0.822889Z" fill="white"/>
<path fill-rule="evenodd" clip-rule="evenodd" d="M13.2247 9.2516C14.3219 10.3488 14.3219 12.1277 13.2247 13.2249L6.78278 19.6668L13.2247 26.1087C14.3219 27.2059 14.3219 28.9848 13.2247 30.082C12.1275 31.1792 10.3486 31.1792 9.25145 30.082L0.822889 21.6534C-0.274297 20.5562 -0.274297 18.7773 0.822889 17.6802L9.25145 9.2516C10.3486 8.15441 12.1275 8.15441 13.2247 9.2516Z" fill="white"/>
<path d="M52.0386 27.1303C50.6674 27.1303 49.419 26.8086 48.2932 26.1654C47.1675 25.5221 46.283 24.6376 45.6397 23.5119C45.0049 22.3861 44.6875 21.1334 44.6875 19.7538C44.6875 18.3741 45.0049 17.1257 45.6397 16.0084C46.283 14.8827 47.1675 14.0024 48.2932 13.3676C49.419 12.7243 50.6716 12.4027 52.0513 12.4027C53.778 12.4027 55.2719 12.8894 56.5331 13.8627C57.7942 14.8361 58.6195 16.1311 59.0088 17.7478H56.1522C55.7797 16.9437 55.2296 16.3131 54.5017 15.856C53.7737 15.3905 52.9527 15.1578 52.0386 15.1578C50.7774 15.1578 49.7237 15.5979 48.8772 16.4782C48.0393 17.3584 47.6203 18.4503 47.6203 19.7538C47.6203 21.0573 48.0435 22.1534 48.8899 23.0421C49.7364 23.9308 50.7859 24.3752 52.0386 24.3752C52.9612 24.3752 53.778 24.1382 54.489 23.6642C55.2084 23.1902 55.7586 22.5258 56.1395 21.6709H59.0469C58.6576 23.3129 57.8238 24.6334 56.5458 25.6321C55.2677 26.6309 53.7653 27.1303 52.0386 27.1303Z" fill="white"/>
<path d="M72.2002 26.1781C71.0575 26.8129 69.7794 27.1303 68.3659 27.1303C66.9524 27.1303 65.6743 26.8129 64.5317 26.1781C63.389 25.5348 62.4918 24.6545 61.8401 23.5372C61.1883 22.4115 60.8625 21.1546 60.8625 19.7665C60.8625 18.3699 61.1883 17.113 61.8401 15.9957C62.4918 14.87 63.389 13.9897 64.5317 13.3549C65.6743 12.7201 66.9524 12.4027 68.3659 12.4027C69.7794 12.4027 71.0575 12.7201 72.2002 13.3549C73.3428 13.9897 74.24 14.87 74.8918 15.9957C75.5435 17.1214 75.8694 18.3784 75.8694 19.7665C75.8694 21.1546 75.5435 22.4115 74.8918 23.5372C74.24 24.6545 73.3428 25.5348 72.2002 26.1781ZM65.0776 23.0802C65.9409 23.9435 67.037 24.3752 68.3659 24.3752C69.6948 24.3752 70.7867 23.9435 71.6415 23.0802C72.5049 22.2168 72.9366 21.1123 72.9366 19.7665C72.9366 18.4207 72.5049 17.3161 71.6415 16.4528C70.7867 15.5894 69.6948 15.1578 68.3659 15.1578C67.037 15.1578 65.9409 15.5894 65.0776 16.4528C64.2227 17.3161 63.7953 18.4207 63.7953 19.7665C63.7953 21.1123 64.2227 22.2168 65.0776 23.0802Z" fill="white"/>
<path d="M89.8479 7.71777H92.7299V26.7875H90.5462L90.178 25.2005C88.8322 26.4955 87.1817 27.143 85.2265 27.143C83.1189 27.143 81.3753 26.4404 79.9956 25.0354C78.616 23.6304 77.9262 21.874 77.9262 19.7665C77.9262 17.6504 78.6118 15.8941 79.9829 14.4975C81.3626 13.101 83.1104 12.4027 85.2265 12.4027C87.0039 12.4027 88.5444 12.9486 89.8479 14.0405V7.71777ZM82.1667 23.0675C83.03 23.9393 84.1219 24.3752 85.4423 24.3752C86.7627 24.3752 87.8588 23.9351 88.7306 23.0548C89.6109 22.1745 90.051 21.0784 90.051 19.7665C90.051 18.4545 89.6109 17.3584 88.7306 16.4782C87.8588 15.5979 86.7627 15.1578 85.4423 15.1578C84.1219 15.1578 83.03 15.5979 82.1667 16.4782C81.3033 17.35 80.8717 18.4461 80.8717 19.7665C80.8717 21.0869 81.3033 22.1872 82.1667 23.0675Z" fill="white"/>
<path d="M110.2 19.8046C110.2 20.0754 110.179 20.3886 110.136 20.7441H98.7352C98.913 21.8783 99.387 22.7755 100.157 23.4357C100.927 24.0959 101.888 24.426 103.039 24.426C103.869 24.426 104.609 24.244 105.261 23.88C105.921 23.5161 106.438 23.0125 106.81 22.3692H109.857C109.298 23.8504 108.414 25.0142 107.204 25.8607C105.993 26.7071 104.605 27.1303 103.039 27.1303C100.991 27.1303 99.2769 26.4278 97.8973 25.0227C96.5176 23.6092 95.8278 21.8571 95.8278 19.7665C95.8278 18.3868 96.141 17.1341 96.7673 16.0084C97.3937 14.8827 98.257 14.0024 99.3574 13.3676C100.458 12.7243 101.685 12.4027 103.039 12.4027C104.436 12.4027 105.684 12.737 106.785 13.4057C107.885 14.0659 108.727 14.9588 109.311 16.0846C109.904 17.2018 110.2 18.4418 110.2 19.8046ZM103.039 15.0054C101.964 15.0054 101.05 15.3101 100.297 15.9195C99.5436 16.5289 99.0484 17.3584 98.8114 18.408H107.305C107.043 17.3415 106.531 16.5078 105.769 15.9068C105.016 15.3059 104.106 15.0054 103.039 15.0054Z" fill="white"/>
<path d="M118.934 27.0692C117.334 27.0692 116.052 26.6926 115.087 25.9393C114.122 25.1775 113.593 24.1364 113.5 22.816H114.744C114.837 23.7894 115.256 24.5469 116.001 25.0886C116.754 25.6219 117.745 25.8885 118.972 25.8885C120.199 25.8885 121.185 25.6303 121.93 25.114C122.675 24.5892 123.048 23.8867 123.048 23.0064C123.048 22.7441 123.018 22.5028 122.959 22.2828C122.899 22.0542 122.802 21.8553 122.667 21.686C122.54 21.5083 122.404 21.3517 122.26 21.2163C122.125 21.0809 121.939 20.9624 121.702 20.8608C121.473 20.7507 121.266 20.6576 121.08 20.5815C120.893 20.5053 120.648 20.4333 120.343 20.3656C120.039 20.2979 119.78 20.2471 119.569 20.2133C119.366 20.171 119.095 20.1202 118.756 20.0609C118.401 20.0017 118.13 19.9551 117.944 19.9213C117.757 19.8874 117.495 19.8324 117.157 19.7562C116.818 19.68 116.556 19.6123 116.369 19.5531C116.192 19.4854 115.963 19.3965 115.684 19.2865C115.413 19.168 115.197 19.0495 115.036 18.931C114.884 18.804 114.715 18.6516 114.528 18.4739C114.342 18.2961 114.203 18.1057 114.109 17.9026C114.016 17.691 113.936 17.4497 113.868 17.1789C113.8 16.908 113.767 16.616 113.767 16.3028C113.767 15.1602 114.236 14.2376 115.176 13.5351C116.115 12.8241 117.343 12.4686 118.858 12.4686C120.381 12.4686 121.596 12.8325 122.502 13.5605C123.416 14.2799 123.902 15.266 123.962 16.5187H122.743C122.684 15.6046 122.311 14.8936 121.626 14.3857C120.94 13.8779 120.009 13.6239 118.832 13.6239C117.681 13.6239 116.754 13.8694 116.052 14.3603C115.358 14.8428 115.011 15.4818 115.011 16.2775C115.011 16.5822 115.053 16.8572 115.138 17.1027C115.231 17.3397 115.383 17.5471 115.595 17.7248C115.806 17.8941 116.01 18.0338 116.204 18.1438C116.399 18.2538 116.687 18.3596 117.068 18.4612C117.449 18.5543 117.757 18.6263 117.994 18.677C118.231 18.7194 118.587 18.7786 119.061 18.8548C119.721 18.9648 120.225 19.0579 120.572 19.1341C120.927 19.2018 121.38 19.3372 121.93 19.5404C122.489 19.7435 122.912 19.9763 123.2 20.2387C123.488 20.5011 123.746 20.865 123.974 21.3305C124.203 21.7961 124.317 22.3378 124.317 22.9557C124.317 24.1999 123.822 25.1987 122.832 25.952C121.85 26.6968 120.551 27.0692 118.934 27.0692Z" fill="#F5F5F5"/>
<path d="M133.09 25.5965H134.626V26.7899H132.951C131.579 26.7899 130.496 26.3921 129.7 25.5965C128.913 24.8008 128.52 23.709 128.52 22.3208V13.916H126.184V13.6239L129.548 10.2721H129.802V12.7479H134.512V13.916H129.802V22.2828C129.802 23.3408 130.085 24.1576 130.653 24.7331C131.228 25.3087 132.041 25.5965 133.09 25.5965Z" fill="#F5F5F5"/>
<path d="M147.932 25.3933C146.849 26.5106 145.389 27.0692 143.552 27.0692C141.715 27.0692 140.251 26.5106 139.159 25.3933C138.076 24.2676 137.534 22.7652 137.534 20.8862V12.7479H138.816V20.7084C138.816 22.2912 139.239 23.5439 140.086 24.4665C140.941 25.3806 142.096 25.8377 143.552 25.8377C145.016 25.8377 146.172 25.3806 147.018 24.4665C147.864 23.5439 148.288 22.2912 148.288 20.7084V12.7479H149.57V20.8862C149.57 22.7652 149.024 24.2676 147.932 25.3933Z" fill="#F5F5F5"/>
<path d="M166.164 7.771H167.433V26.7899H166.418L166.227 23.8571C165.593 24.8559 164.75 25.643 163.701 26.2186C162.651 26.7857 161.479 27.0692 160.184 27.0692C158.821 27.0692 157.59 26.7518 156.489 26.117C155.397 25.4822 154.543 24.6104 153.925 23.5016C153.307 22.3843 152.998 21.1401 152.998 19.7689C152.998 18.3977 153.307 17.1577 153.925 16.0489C154.543 14.9317 155.397 14.0556 156.489 13.4208C157.59 12.786 158.821 12.4686 160.184 12.4686C161.454 12.4686 162.605 12.7437 163.637 13.2938C164.678 13.844 165.521 14.6058 166.164 15.5792V7.771ZM160.273 25.8377C161.991 25.8377 163.413 25.2621 164.539 24.111C165.673 22.9599 166.24 21.5125 166.24 19.7689C166.24 18.0253 165.673 16.5779 164.539 15.4268C163.413 14.2757 161.991 13.7001 160.273 13.7001C158.563 13.7001 157.137 14.2799 155.994 15.4395C154.86 16.5906 154.293 18.0338 154.293 19.7689C154.293 21.4956 154.86 22.9387 155.994 24.0983C157.137 25.2579 158.563 25.8377 160.273 25.8377Z" fill="#F5F5F5"/>
<path d="M172.169 9.85317V8.05031H173.769V9.85317H172.169ZM172.334 26.7899V12.7479H173.604V26.7899H172.334Z" fill="#F5F5F5"/>
<path d="M184.65 27.0692C183.27 27.0692 182.017 26.7561 180.891 26.1297C179.774 25.4949 178.894 24.6231 178.251 23.5143C177.616 22.397 177.298 21.1486 177.298 19.7689C177.298 17.6698 177.997 15.9304 179.393 14.5508C180.798 13.1627 182.55 12.4686 184.65 12.4686C186.749 12.4686 188.497 13.1627 189.893 14.5508C191.298 15.9389 192.001 17.6783 192.001 19.7689C192.001 21.8596 191.298 23.5989 189.893 24.987C188.497 26.3752 186.749 27.0692 184.65 27.0692ZM184.65 25.8377C186.393 25.8377 187.836 25.2621 188.979 24.111C190.13 22.9599 190.706 21.5125 190.706 19.7689C190.706 18.0253 190.13 16.5779 188.979 15.4268C187.836 14.2757 186.393 13.7001 184.65 13.7001C182.906 13.7001 181.459 14.2757 180.307 15.4268C179.165 16.5695 178.593 18.0168 178.593 19.7689C178.593 21.5125 179.169 22.9599 180.32 24.111C181.471 25.2621 182.914 25.8377 184.65 25.8377Z" fill="#F5F5F5"/>
<path d="M139 32.9883H140.95C141.454 32.9883 141.845 33.1084 142.125 33.3486C142.408 33.5888 142.55 33.9197 142.55 34.3412C142.55 34.7627 142.408 35.0958 142.125 35.3406C141.841 35.5808 141.449 35.7009 140.95 35.7009H139.563V37.8288H139V32.9883ZM140.902 35.2386C141.264 35.2386 141.536 35.1616 141.719 35.0074C141.903 34.8533 141.994 34.6313 141.994 34.3412C141.994 34.0511 141.903 33.8313 141.719 33.6818C141.536 33.5277 141.264 33.4506 140.902 33.4506H139.563V35.2386H140.902Z" fill="white"/>
<path d="M146.332 37.8831C145.879 37.8831 145.485 37.7834 145.151 37.584C144.817 37.3846 144.558 37.099 144.375 36.7274C144.197 36.3512 144.107 35.9116 144.107 35.4085C144.107 34.9009 144.197 34.4612 144.375 34.0896C144.554 33.7179 144.81 33.4324 145.144 33.2329C145.479 33.0336 145.875 32.9338 146.332 32.9338C146.79 32.9338 147.186 33.0336 147.52 33.2329C147.855 33.4324 148.111 33.7179 148.29 34.0896C148.468 34.4612 148.557 34.8986 148.557 35.4017C148.557 35.9093 148.466 36.349 148.283 36.7206C148.104 37.0922 147.848 37.38 147.514 37.584C147.179 37.7834 146.786 37.8831 146.332 37.8831ZM146.332 37.4073C146.85 37.4073 147.253 37.2327 147.541 36.8838C147.83 36.5347 147.974 36.0408 147.974 35.4017C147.974 34.7626 147.83 34.2709 147.541 33.9264C147.257 33.582 146.854 33.4097 146.332 33.4097C145.811 33.4097 145.405 33.5842 145.117 33.9332C144.828 34.2777 144.684 34.7671 144.684 35.4017C144.684 36.0408 144.828 36.5347 145.117 36.8838C145.405 37.2327 145.811 37.4073 146.332 37.4073Z" fill="white"/>
<path d="M157.139 32.9883L155.429 37.8288H154.949L153.555 33.8653L152.154 37.8288H151.68L149.963 32.9883H150.54L151.927 37.0334L153.348 32.9883L153.781 32.9951L155.182 37.047L156.583 32.9883H157.139Z" fill="white"/>
<path d="M158.838 32.9883H161.928V33.4506H159.394V35.1366H161.791V35.6057H159.394V37.3665H161.928V37.8288H158.838V32.9883Z" fill="white"/>
<path d="M167.573 37.8288H166.976L166.371 36.2176C166.298 36.0182 166.195 35.8845 166.062 35.8164C165.934 35.7485 165.751 35.7145 165.513 35.7145H164.291V37.8288H163.734V32.9883H165.678C166.204 32.9883 166.607 33.1039 166.886 33.335C167.17 33.5662 167.312 33.8993 167.312 34.3344C167.312 34.6517 167.227 34.9191 167.058 35.1366C166.893 35.3496 166.653 35.5015 166.337 35.5921C166.479 35.6148 166.6 35.6759 166.701 35.7757C166.802 35.8709 166.886 36.0091 166.955 36.1904L167.573 37.8288ZM165.63 35.2522C166.381 35.2522 166.756 34.9485 166.756 34.3412C166.756 34.042 166.664 33.82 166.481 33.675C166.298 33.5254 166.014 33.4506 165.63 33.4506H164.291V35.2522H165.63Z" fill="white"/>
<path d="M169.354 32.9883H172.444V33.4506H169.91V35.1366H172.306V35.6057H169.91V37.3665H172.444V37.8288H169.354V32.9883Z" fill="white"/>
<path d="M174.25 32.9883H175.891C176.674 32.9883 177.279 33.199 177.705 33.6205C178.135 34.0375 178.35 34.6313 178.35 35.4017C178.35 36.1768 178.135 36.775 177.705 37.1966C177.279 37.6181 176.674 37.8288 175.891 37.8288H174.25V32.9883ZM175.857 37.3529C176.489 37.3529 176.962 37.1897 177.279 36.8634C177.599 36.5371 177.759 36.0499 177.759 35.4017C177.759 34.1101 177.125 33.4642 175.857 33.4642H174.813V37.3529H175.857Z" fill="white"/>
<path d="M185.653 35.3406C185.932 35.4176 186.15 35.5581 186.306 35.7621C186.461 35.9615 186.539 36.2107 186.539 36.5099C186.539 36.9314 186.397 37.2578 186.113 37.4889C185.83 37.7155 185.429 37.8288 184.912 37.8288H182.879V32.9883H184.843C185.342 32.9883 185.729 33.0993 186.004 33.3214C186.283 33.539 186.422 33.8494 186.422 34.2528C186.422 34.5112 186.354 34.7355 186.216 34.9259C186.084 35.1117 185.896 35.2499 185.653 35.3406ZM183.435 35.1366H184.754C185.12 35.1366 185.397 35.0641 185.585 34.9191C185.772 34.7741 185.866 34.561 185.866 34.28C185.866 33.727 185.495 33.4506 184.754 33.4506H183.435V35.1366ZM184.863 37.3665C185.248 37.3665 185.529 37.2962 185.708 37.1558C185.891 37.0107 185.983 36.7909 185.983 36.4963C185.983 35.9026 185.609 35.6057 184.863 35.6057H183.435V37.3665H184.863Z" fill="white"/>
<path d="M190.077 35.8709V37.8288H189.514V35.8641L187.592 32.9883H188.251L189.803 35.3678L191.355 32.9883H192.001L190.077 35.8709Z" fill="white"/>
<path d="M215.256 29.6052C214.806 29.3566 214.459 29.006 214.216 28.5529C213.973 28.0998 213.852 27.5756 213.852 26.9805C213.852 26.391 213.973 25.8709 214.216 25.4207C214.459 24.9704 214.805 24.621 215.256 24.3724C215.706 24.1239 216.235 24 216.841 24C217.223 24 217.593 24.0573 217.95 24.1719C218.308 24.2865 218.596 24.4422 218.814 24.6387L218.347 25.7277C217.872 25.3839 217.381 25.2117 216.873 25.2117C216.404 25.2117 216.043 25.3605 215.792 25.6579C215.541 25.9557 215.415 26.3963 215.415 26.9805C215.415 27.57 215.541 28.015 215.792 28.3152C216.043 28.6154 216.404 28.7655 216.873 28.7655C217.381 28.7655 217.872 28.5936 218.347 28.2495L218.814 29.3385C218.596 29.5349 218.308 29.6907 217.95 29.8053C217.593 29.9199 217.223 29.9772 216.841 29.9772C216.235 29.978 215.707 29.8537 215.256 29.6052Z" fill="white"/>
<path d="M221.198 29.6136C220.756 29.3707 220.416 29.0225 220.179 28.5694C219.941 28.1163 219.822 27.5865 219.822 26.9805C219.822 26.3745 219.942 25.8475 220.183 25.4001C220.423 24.9526 220.763 24.6072 221.202 24.3643C221.642 24.1214 222.159 24 222.754 24C223.349 24 223.866 24.1214 224.306 24.3643C224.745 24.6072 225.082 24.9526 225.317 25.4001C225.552 25.8479 225.67 26.3745 225.67 26.9805C225.67 27.5865 225.552 28.1163 225.317 28.5694C225.082 29.0225 224.746 29.3707 224.306 29.6136C223.866 29.8565 223.349 29.978 222.754 29.978C222.159 29.978 221.64 29.8565 221.198 29.6136ZM223.782 28.3402C224.031 28.0292 224.154 27.5761 224.154 26.9809C224.154 26.3914 224.03 25.9424 223.782 25.6337C223.533 25.3254 223.191 25.1709 222.754 25.1709C222.317 25.1709 221.976 25.3238 221.731 25.6297C221.485 25.9355 221.362 26.3858 221.362 26.9809C221.362 27.5817 221.485 28.036 221.731 28.3443C221.976 28.6529 222.317 28.8071 222.754 28.8071C223.191 28.8067 223.533 28.6513 223.782 28.3402Z" fill="white"/>
<path d="M227.061 24.074H229.444C230.087 24.074 230.643 24.1902 231.11 24.4222C231.577 24.6542 231.934 24.9887 232.183 25.4252C232.431 25.8622 232.555 26.3807 232.555 26.9811C232.555 27.5871 232.432 28.11 232.187 28.5494C231.941 28.9888 231.585 29.3245 231.118 29.5565C230.651 29.7885 230.093 29.9047 229.443 29.9047H227.061V24.074ZM229.337 28.6765C229.905 28.6765 230.33 28.5361 230.611 28.2548C230.892 27.9736 231.032 27.5492 231.032 26.9815C231.032 25.8622 230.468 25.3026 229.337 25.3026H228.6V28.6765H229.337V28.6765Z" fill="white"/>
<path d="M233.947 24.074H235.487V29.9047H233.947V24.074Z" fill="white"/>
<path d="M242.244 24.074V29.9047H241.106L238.461 26.5961V29.9047H237.027V24.074H238.149L240.795 27.366V24.074H242.244Z" fill="white"/>
<path d="M248.966 26.6121V29.5358C248.655 29.6778 248.307 29.7871 247.922 29.8634C247.537 29.9396 247.143 29.978 246.739 29.978C246.105 29.978 245.555 29.8577 245.089 29.6177C244.622 29.3776 244.263 29.0322 244.012 28.5819C243.76 28.1316 243.635 27.5978 243.635 26.9809C243.635 26.3805 243.76 25.8548 244.012 25.4045C244.263 24.9542 244.618 24.6076 245.076 24.3643C245.535 24.1214 246.069 24 246.681 24C247.101 24 247.498 24.0545 247.873 24.1638C248.247 24.2732 248.551 24.4233 248.786 24.6141L248.303 25.7031C248.035 25.5284 247.777 25.4017 247.529 25.3222C247.28 25.2431 247.014 25.2036 246.73 25.2036C246.211 25.2036 245.825 25.3496 245.571 25.6418C245.318 25.9339 245.191 26.3801 245.191 26.9805C245.191 27.6031 245.323 28.0643 245.588 28.3645C245.852 28.6646 246.26 28.8147 246.812 28.8147C247.068 28.8147 247.325 28.7873 247.582 28.7328V27.6519H246.566V26.6117H248.966V26.6121Z" fill="white"/>
<path d="M219.669 32.3203V38.5763H218.448L215.61 35.0265V38.5763H214.072V32.3203H215.276L218.114 35.8524V32.3203H219.669Z" fill="white"/>
<path d="M221.506 32.3198H223.158V38.5758H221.506V32.3198Z" fill="white"/>
<path d="M230.581 32.3198V38.5758H229.36L226.522 35.026V38.5758H224.984V32.3198H226.188L229.026 35.8519V32.3198H230.581Z" fill="white"/>
<path d="M231.873 38.8308C232.166 38.8598 232.38 38.8748 232.515 38.8748C232.778 38.8748 232.954 38.8219 233.042 38.7166C233.13 38.6113 233.174 38.4092 233.174 38.1102V32.3198H234.826V38.0839C234.826 38.8219 234.676 39.3638 234.377 39.7096C234.079 40.055 233.566 40.228 232.84 40.228C232.553 40.228 232.231 40.2018 231.873 40.149V38.8308V38.8308Z" fill="white"/>
<path d="M240.879 37.285H238.102L237.548 38.5765H235.896L238.823 32.3206H240.123L243.058 38.5765H241.432L240.879 37.285ZM240.343 36.0459L239.491 34.0688L238.639 36.0459H240.343Z" fill="white"/>
<path d="M244.905 38.4709C244.448 38.3478 244.076 38.1808 243.789 37.9702L244.308 36.8017C244.612 36.9949 244.936 37.143 245.278 37.2455C245.621 37.348 245.965 37.3992 246.311 37.3992C246.662 37.3992 246.932 37.3508 247.119 37.2544C247.307 37.1575 247.401 37.0216 247.401 36.8457C247.401 36.6875 247.315 36.5572 247.146 36.4547C246.976 36.3522 246.657 36.2513 246.188 36.1517C245.596 36.0347 245.136 35.8894 244.808 35.7167C244.48 35.544 244.25 35.3403 244.118 35.1063C243.986 34.8718 243.921 34.5878 243.921 34.2541C243.921 33.8732 244.029 33.529 244.246 33.2216C244.462 32.9141 244.767 32.6741 245.16 32.501C245.552 32.3283 246 32.2419 246.504 32.2419C246.955 32.2419 247.393 32.3049 247.818 32.4308C248.242 32.5567 248.575 32.7221 248.815 32.9271L248.306 34.0955C248.03 33.9023 247.74 33.7542 247.436 33.6517C247.131 33.5492 246.826 33.498 246.522 33.498C246.223 33.498 245.983 33.5553 245.801 33.6695C245.62 33.7836 245.529 33.9374 245.529 34.1306C245.529 34.2359 245.561 34.3239 245.626 34.3941C245.69 34.4643 245.81 34.5333 245.986 34.6007C246.162 34.6681 246.425 34.7399 246.777 34.8161C247.345 34.9392 247.792 35.0873 248.117 35.26C248.442 35.4327 248.672 35.6348 248.806 35.8664C248.941 36.098 249.008 36.3748 249.008 36.6968C249.008 37.306 248.771 37.785 248.297 38.1336C247.822 38.4822 247.154 38.6565 246.293 38.6565C245.825 38.6553 245.362 38.5935 244.905 38.4709Z" fill="white"/>
<path d="M203.109 27.8749H210.924V24.2012H203.121C201.876 24.1278 200.63 24.4579 199.568 25.1171C198.652 25.7397 197.956 26.6189 197.59 27.6445C197.187 28.8534 196.968 30.0989 197.004 31.3441C196.967 32.5896 197.187 33.8715 197.59 35.0436C197.957 36.0692 198.653 36.9484 199.568 37.571C200.63 38.2303 201.876 38.5599 203.121 38.4869H210.923V34.4057H203.109C202.118 34.4057 201.421 34.1123 200.981 33.562C200.54 33.0116 200.283 32.2047 200.283 31.1403C200.283 28.9756 201.201 27.8749 203.109 27.8749Z" fill="white"/>
<path fill-rule="evenodd" clip-rule="evenodd" d="M201.744 30.5706L205.407 31.2702C205.407 31.2706 202.721 34.0631 201.744 30.5706Z" fill="white"/>
<path fill-rule="evenodd" clip-rule="evenodd" d="M210.333 30.5828L206.781 31.3195C206.781 31.3199 209.857 34.083 210.333 30.5828Z" fill="white"/>
</svg>
