<svg width="24" height="24" viewBox="0 0 24 24" fill="none" xmlns="http://www.w3.org/2000/svg">
<mask id="mask0_53_1027" style="mask-type:alpha" maskUnits="userSpaceOnUse" x="0" y="0" width="24" height="24">
<rect width="24" height="24" transform="matrix(1 0 0 -1 0 24)" fill="#D9D9D9"/>
</mask>
<g mask="url(#mask0_53_1027)">
<path d="M6.6998 9.32498C6.51647 9.50831 6.4248 9.74164 6.4248 10.025C6.4248 10.3083 6.51647 10.5416 6.6998 10.725L11.2998 15.325C11.3998 15.425 11.5081 15.496 11.6248 15.538C11.7415 15.5793 11.8665 15.6 11.9998 15.6C12.1331 15.6 12.2581 15.5793 12.3748 15.538C12.4915 15.496 12.5998 15.425 12.6998 15.325L17.3248 10.7C17.5081 10.5166 17.5998 10.2916 17.5998 10.025C17.5998 9.75831 17.4998 9.52497 17.2998 9.32498C17.1165 9.14164 16.8831 9.04998 16.5998 9.04998C16.3165 9.04998 16.0831 9.14164 15.8998 9.32498L11.9998 13.225L8.0748 9.29998C7.89147 9.11664 7.66647 9.02497 7.3998 9.02497C7.13314 9.02497 6.8998 9.12498 6.6998 9.32498Z" fill="#D2D2D6"/>
</g>
</svg>
