<svg width="151" height="32" viewBox="0 0 151 32" fill="none" xmlns="http://www.w3.org/2000/svg">
<path d="M0 12.5954H2.50884C3.15666 12.5954 3.66019 12.7499 4.01944 13.0589C4.38457 13.3679 4.56714 13.7935 4.56714 14.3357C4.56714 14.8779 4.38457 15.3065 4.01944 15.6213C3.6543 15.9303 3.15077 16.0848 2.50884 16.0848H0.724382V18.8222H0V12.5954ZM2.447 15.4901C2.91225 15.4901 3.26267 15.391 3.49824 15.1928C3.73381 14.9945 3.85159 14.7089 3.85159 14.3357C3.85159 13.9626 3.73381 13.6798 3.49824 13.4874C3.26267 13.2892 2.91225 13.19 2.447 13.19H0.724382V15.4901H2.447Z" fill="white"/>
<path d="M9.4305 18.8921C8.84746 18.8921 8.34098 18.7639 7.91106 18.5073C7.48114 18.2508 7.1484 17.8835 6.91283 17.4054C6.68315 16.9215 6.5683 16.3559 6.5683 15.7088C6.5683 15.0558 6.68315 14.4902 6.91283 14.0121C7.14251 13.534 7.47231 13.1667 7.90223 12.9102C8.33215 12.6537 8.84157 12.5254 9.4305 12.5254C10.0194 12.5254 10.5289 12.6537 10.9588 12.9102C11.3887 13.1667 11.7185 13.534 11.9482 14.0121C12.1779 14.4902 12.2927 15.0528 12.2927 15.7C12.2927 16.353 12.1749 16.9186 11.9393 17.3966C11.7097 17.8747 11.3799 18.245 10.9499 18.5073C10.52 18.7639 10.0135 18.8921 9.4305 18.8921ZM9.4305 18.2799C10.096 18.2799 10.6142 18.0555 10.9853 17.6065C11.3563 17.1576 11.5418 16.5221 11.5418 15.7C11.5418 14.8779 11.3563 14.2453 10.9853 13.8022C10.6201 13.3591 10.1019 13.1376 9.4305 13.1376C8.75912 13.1376 8.23792 13.362 7.86689 13.811C7.49587 14.2541 7.31035 14.8838 7.31035 15.7C7.31035 16.5221 7.49587 17.1576 7.86689 17.6065C8.23792 18.0555 8.75912 18.2799 9.4305 18.2799Z" fill="white"/>
<path d="M23.3337 12.5954L21.134 18.8222H20.5156L18.7223 13.7235L16.9202 18.8222H16.3107L14.1022 12.5954H14.8443L16.6287 17.7989L18.4573 12.5954L19.0139 12.6041L20.816 17.8164L22.6181 12.5954H23.3337Z" fill="white"/>
<path d="M25.5183 12.5954H29.4936V13.19H26.2339V15.3589H29.3169V15.9624H26.2339V18.2275H29.4936V18.8222H25.5183V12.5954Z" fill="white"/>
<path d="M36.7541 18.8222H35.9856L35.2082 16.7495C35.114 16.4929 34.9815 16.3209 34.8107 16.2335C34.6458 16.146 34.4102 16.1023 34.1039 16.1023H32.5315V18.8222H31.816V12.5954H34.316C34.9932 12.5954 35.5115 12.744 35.8707 13.0414C36.2359 13.3387 36.4184 13.7673 36.4184 14.327C36.4184 14.7351 36.3095 15.0791 36.0916 15.3589C35.8796 15.633 35.5704 15.8283 35.164 15.9449C35.3466 15.974 35.5027 16.0527 35.6322 16.181C35.7618 16.3035 35.8707 16.4813 35.9591 16.7145L36.7541 18.8222ZM34.2541 15.5076C35.22 15.5076 35.7029 15.117 35.7029 14.3357C35.7029 13.9509 35.5851 13.6652 35.3495 13.4787C35.114 13.2863 34.7488 13.19 34.2541 13.19H32.5315V15.5076H34.2541Z" fill="white"/>
<path d="M39.0453 12.5954H43.0206V13.19H39.7608V15.3589H42.8439V15.9624H39.7608V18.2275H43.0206V18.8222H39.0453V12.5954Z" fill="white"/>
<path d="M45.3429 12.5954H47.4542C48.4613 12.5954 49.2387 12.8665 49.7864 13.4087C50.34 13.9451 50.6168 14.7089 50.6168 15.7C50.6168 16.697 50.34 17.4666 49.7864 18.0088C49.2387 18.551 48.4613 18.8222 47.4542 18.8222H45.3429V12.5954ZM47.4101 18.21C48.2228 18.21 48.8323 18.0001 49.2387 17.5803C49.6509 17.1605 49.8571 16.5338 49.8571 15.7C49.8571 14.0384 49.0414 13.2075 47.4101 13.2075H46.0673V18.21H47.4101Z" fill="white"/>
<path d="M60.0146 15.6213C60.3739 15.7204 60.6536 15.9012 60.8539 16.1635C61.0541 16.4201 61.1542 16.7407 61.1542 17.1255C61.1542 17.6678 60.9716 18.0875 60.6065 18.3849C60.2414 18.6764 59.7261 18.8222 59.0606 18.8222H56.4457V12.5954H58.9722C59.6142 12.5954 60.1118 12.7382 60.4652 13.0239C60.8244 13.3037 61.004 13.7031 61.004 14.222C61.004 14.5543 60.9157 14.843 60.739 15.0878C60.5682 15.3269 60.3268 15.5047 60.0146 15.6213ZM57.1613 15.3589H58.8574C59.3285 15.3589 59.6848 15.2657 59.9263 15.0791C60.1678 14.8925 60.2885 14.6185 60.2885 14.257C60.2885 13.5457 59.8115 13.19 58.8574 13.19H57.1613V15.3589ZM58.9987 18.2275C59.4934 18.2275 59.8556 18.1371 60.0853 17.9564C60.3209 17.7698 60.4387 17.487 60.4387 17.108C60.4387 16.3443 59.9587 15.9624 58.9987 15.9624H57.1613V18.2275H58.9987Z" fill="white"/>
<path d="M65.7036 16.3035V18.8222H64.9792V16.2947L62.5057 12.5954H63.3538L65.3503 15.6563L67.3467 12.5954H68.1771L65.7036 16.3035Z" fill="white"/>
<path d="M100.353 12.8511C99.7572 12.522 99.2977 12.0578 98.9761 11.4579C98.6545 10.8579 98.4937 10.164 98.4937 9.376C98.4937 8.5955 98.6545 7.90688 98.9761 7.31069C99.2977 6.71449 99.7566 6.25186 100.353 5.92278C100.95 5.59369 101.649 5.42969 102.451 5.42969C102.957 5.42969 103.447 5.50555 103.92 5.65727C104.394 5.80899 104.775 6.0152 105.064 6.27536L104.446 7.71723C103.817 7.26207 103.167 7.03396 102.495 7.03396C101.873 7.03396 101.396 7.23109 101.063 7.62481C100.731 8.01907 100.564 8.60244 100.564 9.376C100.564 10.1565 100.731 10.7457 101.063 11.1432C101.396 11.5407 101.873 11.7394 102.495 11.7394C103.167 11.7394 103.817 11.5118 104.446 11.0561L105.064 12.498C104.775 12.7582 104.394 12.9644 103.92 13.1161C103.447 13.2678 102.957 13.3437 102.451 13.3437C101.649 13.3447 100.95 13.1802 100.353 12.8511Z" fill="white"/>
<path d="M108.219 12.8623C107.634 12.5407 107.184 12.0797 106.869 11.4798C106.555 10.8798 106.398 10.1784 106.398 9.376C106.398 8.57359 106.556 7.8759 106.875 7.28344C107.193 6.69099 107.643 6.23369 108.225 5.91209C108.806 5.59049 109.491 5.42969 110.279 5.42969C111.067 5.42969 111.752 5.59049 112.334 5.91209C112.916 6.23369 113.362 6.69099 113.673 7.28344C113.984 7.87643 114.14 8.57359 114.14 9.376C114.14 10.1784 113.984 10.8798 113.673 11.4798C113.362 12.0797 112.916 12.5407 112.334 12.8623C111.752 13.1839 111.067 13.3447 110.279 13.3447C109.492 13.3447 108.805 13.1839 108.219 12.8623ZM111.64 11.1763C111.97 10.7644 112.134 10.1645 112.134 9.37653C112.134 8.59603 111.969 8.00144 111.64 7.59276C111.311 7.18461 110.858 6.98 110.28 6.98C109.701 6.98 109.25 7.18248 108.924 7.58742C108.599 7.99236 108.437 8.58855 108.437 9.37653C108.437 10.172 108.599 10.7735 108.924 11.1817C109.25 11.5904 109.701 11.7944 110.28 11.7944C110.858 11.7939 111.311 11.5882 111.64 11.1763Z" fill="white"/>
<path d="M115.982 5.52734H119.137C119.99 5.52734 120.725 5.6812 121.343 5.98838C121.962 6.29556 122.435 6.73843 122.764 7.31646C123.093 7.89502 123.257 8.5815 123.257 9.37643C123.257 10.1788 123.095 10.8712 122.769 11.453C122.444 12.0347 121.972 12.4792 121.354 12.7864C120.736 13.0936 119.997 13.2474 119.137 13.2474H115.982V5.52734ZM118.997 11.6212C119.748 11.6212 120.31 11.4353 120.683 11.063C121.055 10.6906 121.241 10.1286 121.241 9.37696C121.241 7.89502 120.493 7.15405 118.997 7.15405H118.021V11.6212H118.997V11.6212Z" fill="white"/>
<path d="M125.101 5.52734H127.139V13.2474H125.101V5.52734Z" fill="white"/>
<path d="M136.083 5.52734V13.2474H134.576L131.074 8.86678V13.2474H129.176V5.52734H130.662L134.164 9.88607V5.52734H136.083Z" fill="white"/>
<path d="M144.986 8.88825V12.7592C144.574 12.9473 144.113 13.0921 143.603 13.193C143.094 13.294 142.571 13.3447 142.036 13.3447C141.198 13.3447 140.469 13.1855 139.851 12.8677C139.233 12.5498 138.758 12.0925 138.425 11.4963C138.093 10.9001 137.927 10.1934 137.927 9.37653C137.927 8.58161 138.093 7.88551 138.425 7.28932C138.758 6.69313 139.228 6.23423 139.835 5.91209C140.442 5.59049 141.15 5.42969 141.96 5.42969C142.517 5.42969 143.042 5.50181 143.537 5.64658C144.033 5.79136 144.435 5.99009 144.746 6.24278L144.107 7.68465C143.753 7.45333 143.411 7.28558 143.082 7.18034C142.753 7.07563 142.401 7.02328 142.025 7.02328C141.338 7.02328 140.827 7.21667 140.491 7.60344C140.155 7.99022 139.986 8.58107 139.986 9.376C139.986 10.2003 140.162 10.8109 140.512 11.2084C140.863 11.6058 141.403 11.8046 142.133 11.8046C142.473 11.8046 142.813 11.7683 143.152 11.6961V10.2649H141.808V8.88772H144.986V8.88825Z" fill="white"/>
<path d="M106.197 16.4453V24.7285H104.579L100.822 20.0284V24.7285H98.7858V16.4453H100.379L104.137 21.1219V16.4453H106.197Z" fill="white"/>
<path d="M108.628 16.4453H110.815V24.7284H108.628V16.4453Z" fill="white"/>
<path d="M120.647 16.4453V24.7284H119.03L115.272 20.0284V24.7284H113.236V16.4453H114.83L118.587 21.1219V16.4453H120.647Z" fill="white"/>
<path d="M122.356 25.0661C122.744 25.1045 123.027 25.1243 123.205 25.1243C123.554 25.1243 123.787 25.0543 123.904 24.9149C124.02 24.7755 124.078 24.5078 124.078 24.112V16.4453H126.265V24.0772C126.265 25.0543 126.068 25.7718 125.672 26.2296C125.277 26.6869 124.598 26.9161 123.636 26.9161C123.256 26.9161 122.829 26.8814 122.356 26.8114V25.0661V25.0661Z" fill="white"/>
<path d="M134.281 23.0184H130.604L129.871 24.7285H127.684L131.558 16.4453H133.28L137.166 24.7285H135.014L134.281 23.0184ZM133.571 21.3778L132.443 18.7601L131.315 21.3778H133.571Z" fill="white"/>
<path d="M139.609 24.5891C139.004 24.4262 138.511 24.205 138.131 23.9262L138.817 22.3791C139.221 22.635 139.649 22.831 140.103 22.9667C140.556 23.1024 141.012 23.1702 141.47 23.1702C141.935 23.1702 142.292 23.1061 142.54 22.9785C142.788 22.8502 142.913 22.6702 142.913 22.4373C142.913 22.2279 142.8 22.0553 142.575 21.9196C142.35 21.7839 141.928 21.6504 141.307 21.5184C140.523 21.3635 139.915 21.1712 139.48 20.9425C139.046 20.7139 138.741 20.4441 138.567 20.1343C138.392 19.8239 138.305 19.4478 138.305 19.006C138.305 18.5017 138.448 18.046 138.736 17.6389C139.022 17.2318 139.426 16.9139 139.946 16.6848C140.465 16.4561 141.058 16.3418 141.726 16.3418C142.323 16.3418 142.903 16.4251 143.465 16.5918C144.027 16.7585 144.467 16.9775 144.786 17.2489L144.111 18.796C143.746 18.5401 143.363 18.3441 142.959 18.2084C142.556 18.0727 142.152 18.0048 141.749 18.0048C141.354 18.0048 141.035 18.0807 140.795 18.2319C140.555 18.3831 140.434 18.5866 140.434 18.8425C140.434 18.9819 140.477 19.0984 140.563 19.1913C140.648 19.2843 140.807 19.3757 141.04 19.4649C141.273 19.5541 141.621 19.6492 142.087 19.7501C142.839 19.9131 143.43 20.1091 143.861 20.3378C144.292 20.5664 144.595 20.8341 144.774 21.1407C144.952 21.4474 145.042 21.8139 145.042 22.2402C145.042 23.0468 144.727 23.681 144.099 24.1425C143.471 24.6041 142.587 24.8349 141.447 24.8349C140.827 24.8333 140.214 24.7515 139.609 24.5891Z" fill="white"/>
<path d="M84.2676 10.561H94.615V5.69694H84.2842C82.635 5.59971 80.9864 6.03671 79.5798 6.90963C78.3671 7.73394 77.4456 8.89801 76.961 10.256C76.4274 11.8565 76.1367 13.5057 76.1848 15.1543C76.1362 16.8035 76.4274 18.5007 76.961 20.0526C77.4461 21.4106 78.3677 22.5747 79.5798 23.399C80.9864 24.2719 82.6356 24.7084 84.2842 24.6117H94.6145V19.208H84.2676C82.9561 19.208 82.033 18.8196 81.4501 18.0909C80.8673 17.3622 80.527 16.2938 80.527 14.8845C80.527 12.0184 81.7413 10.561 84.2676 10.561Z" fill="url(#paint0_linear_2405_9603)"/>
<path fill-rule="evenodd" clip-rule="evenodd" d="M82.4606 14.1309L87.3108 15.0572C87.3108 15.0577 83.7535 18.7551 82.4606 14.1309Z" fill="white"/>
<path fill-rule="evenodd" clip-rule="evenodd" d="M93.8352 14.1465L89.1329 15.122C89.1329 15.1225 93.2053 18.7809 93.8352 14.1465Z" fill="white"/>
<defs>
<linearGradient id="paint0_linear_2405_9603" x1="76.1793" y1="15.1548" x2="94.6146" y2="15.1548" gradientUnits="userSpaceOnUse">
<stop stop-color="#ED722F"/>
<stop offset="0.2694" stop-color="#ED8225"/>
<stop offset="0.7101" stop-color="#EE9719"/>
<stop offset="1" stop-color="#EE9F14"/>
</linearGradient>
</defs>
</svg>
