<svg width="20" height="20" viewBox="0 0 20 20" fill="none" xmlns="http://www.w3.org/2000/svg">
<path d="M13.7501 12.4997C13.3332 12.499 12.9205 12.5824 12.5366 12.7448C12.1527 12.9073 11.8055 13.1454 11.5157 13.445L7.91413 11.1325C8.19527 10.4035 8.19527 9.59595 7.91413 8.8669L11.5157 6.5544C12.0224 7.07257 12.6934 7.39853 13.4139 7.4765C14.1344 7.55446 14.8596 7.37959 15.4654 6.9818C16.0711 6.58402 16.5198 5.98805 16.7346 5.29591C16.9494 4.60377 16.917 3.85848 16.6429 3.18762C16.3688 2.51675 15.87 1.96201 15.232 1.61835C14.5939 1.27468 13.8563 1.16346 13.1453 1.30372C12.4343 1.44397 11.7941 1.82699 11.3344 2.3872C10.8746 2.94742 10.6239 3.65001 10.6251 4.37472C10.6263 4.76197 10.6978 5.14578 10.836 5.50753L7.23444 7.82003C6.80084 7.37456 6.24422 7.06853 5.63576 6.94109C5.02731 6.81364 4.39467 6.87057 3.81874 7.10459C3.24281 7.33861 2.74976 7.73908 2.40265 8.2548C2.05553 8.77052 1.87012 9.37806 1.87012 9.99971C1.87012 10.6214 2.05553 11.2289 2.40265 11.7446C2.74976 12.2604 3.24281 12.6608 3.81874 12.8948C4.39467 13.1289 5.02731 13.1858 5.63576 13.0583C6.24422 12.9309 6.80084 12.6249 7.23444 12.1794L10.836 14.4919C10.6978 14.8537 10.6263 15.2375 10.6251 15.6247C10.6251 16.2428 10.8083 16.847 11.1517 17.3609C11.4951 17.8748 11.9832 18.2753 12.5542 18.5118C13.1252 18.7484 13.7535 18.8102 14.3597 18.6897C14.9659 18.5691 15.5227 18.2715 15.9598 17.8344C16.3968 17.3974 16.6944 16.8406 16.815 16.2344C16.9356 15.6282 16.8737 14.9998 16.6372 14.4288C16.4007 13.8578 16.0001 13.3698 15.4862 13.0264C14.9723 12.683 14.3681 12.4997 13.7501 12.4997Z" fill="#FB813E"/>
</svg>
