<svg width="7" height="12" viewBox="0 0 7 12" fill="none" xmlns="http://www.w3.org/2000/svg">
<path d="M6.50018 5.99981C6.50095 6.13142 6.47572 6.26188 6.42596 6.38372C6.37619 6.50556 6.30287 6.61637 6.21018 6.70981L2.21019 10.7098C2.11695 10.8031 2.00626 10.877 1.88443 10.9275C1.76261 10.9779 1.63204 11.0039 1.50019 11.0039C1.36833 11.0039 1.23776 10.9779 1.11594 10.9275C0.994113 10.877 0.883423 10.8031 0.790185 10.7098C0.696946 10.6166 0.622985 10.5059 0.572525 10.3841C0.522065 10.2622 0.496094 10.1317 0.496094 9.99981C0.496094 9.86796 0.522065 9.73739 0.572525 9.61556C0.622985 9.49374 0.696946 9.38305 0.790185 9.28981L4.10019 5.99981L0.920185 2.69981C0.817895 2.60782 0.735686 2.49572 0.6787 2.3705C0.621714 2.24529 0.591177 2.10967 0.588997 1.97211C0.586818 1.83456 0.613043 1.69803 0.666034 1.57108C0.719025 1.44412 0.797642 1.32947 0.896967 1.23428C0.996291 1.1391 1.11419 1.06543 1.24328 1.01789C1.37238 0.970342 1.50989 0.949947 1.64723 0.957975C1.78456 0.966003 1.91877 1.00228 2.04144 1.06454C2.16412 1.1268 2.27263 1.2137 2.36018 1.31981L6.22019 5.31981C6.3965 5.50269 6.49661 5.74581 6.50018 5.99981Z" fill="#FB813E"/>
</svg>
