<svg width="15" height="20" viewBox="0 0 15 20" fill="none" xmlns="http://www.w3.org/2000/svg">
<path fill-rule="evenodd" clip-rule="evenodd" d="M1.67332e-07 19.3746V2.49994C1.67332e-07 1.83692 0.263386 1.20105 0.732216 0.732216C1.20105 0.263386 1.83692 0 2.49994 0L12.4997 0C13.1627 0 13.7986 0.263386 14.2674 0.732216C14.7363 1.20105 14.9997 1.83692 14.9997 2.49994V19.3746C14.9997 19.4831 14.9716 19.5898 14.9179 19.6841C14.8642 19.7784 14.7869 19.8572 14.6936 19.9125C14.6002 19.9679 14.4941 19.998 14.3855 19.9999C14.277 20.0018 14.1699 19.9754 14.0747 19.9233L7.49983 16.3359L0.924979 19.9233C0.829768 19.9754 0.722632 20.0018 0.614117 19.9999C0.505602 19.998 0.39945 19.9679 0.306108 19.9125C0.212766 19.8572 0.135453 19.7784 0.0817788 19.6841C0.028105 19.5898 -7.92405e-05 19.4831 1.67332e-07 19.3746ZM8.12481 5.62487C8.12481 5.45911 8.05897 5.30015 7.94176 5.18294C7.82455 5.06573 7.66559 4.99989 7.49983 4.99989C7.33407 4.99989 7.1751 5.06573 7.0579 5.18294C6.94069 5.30015 6.87484 5.45911 6.87484 5.62487V7.49983H4.99989C4.83413 7.49983 4.67516 7.56567 4.55795 7.68288C4.44075 7.80009 4.3749 7.95906 4.3749 8.12481C4.3749 8.29057 4.44075 8.44954 4.55795 8.56675C4.67516 8.68395 4.83413 8.7498 4.99989 8.7498H6.87484V10.6248C6.87484 10.7905 6.94069 10.9495 7.0579 11.0667C7.1751 11.1839 7.33407 11.2497 7.49983 11.2497C7.66559 11.2497 7.82455 11.1839 7.94176 11.0667C8.05897 10.9495 8.12481 10.7905 8.12481 10.6248V8.7498H9.99977C10.1655 8.7498 10.3245 8.68395 10.4417 8.56675C10.5589 8.44954 10.6248 8.29057 10.6248 8.12481C10.6248 7.95906 10.5589 7.80009 10.4417 7.68288C10.3245 7.56567 10.1655 7.49983 9.99977 7.49983H8.12481V5.62487Z" fill="#FFD049"/>
</svg>
